<svg width="58" height="75" viewBox="0 0 58 75" fill="none" xmlns="http://www.w3.org/2000/svg">
<path d="M56.5508 29.1814C55.7194 28.2492 50.3365 32.295 48.273 33.9107C44.6194 29.2585 38.6108 26.055 31.6915 25.53L29.7823 18.3128C30.7859 17.6398 31.5318 16.6464 31.898 15.4948C32.2642 14.3431 32.2292 13.1014 31.7986 11.9722C31.3679 10.8431 30.5672 9.89336 29.5272 9.27805C28.4871 8.66274 27.2691 8.41825 26.0722 8.58449C24.8752 8.75074 23.77 9.3179 22.937 10.1934C22.104 11.0688 21.5924 12.2008 21.4858 13.4046C21.3792 14.6083 21.6838 15.8126 22.35 16.8209C23.0162 17.8291 24.0046 18.5817 25.1537 18.9557C25.248 18.9878 25.3401 19.0071 25.4344 19.0328L25.683 25.7614C19.3144 26.7385 13.8844 30 10.6251 34.53C10.0851 34.1014 2.56155 28.065 1.56513 29.1728C0.532268 30.3278 -0.149158 42.7285 3.17227 43.9307C4.36584 44.3592 5.89584 44.2328 7.36798 43.8942C7.36798 44.0657 7.35298 44.235 7.35298 44.4064C7.35299 54.8807 17.3494 63.3707 29.6816 63.3707C42.0137 63.3707 52.0123 54.8807 52.0123 44.4064C52.0123 44.3121 52.0123 44.2178 52.0123 44.1235C53.0687 44.2607 54.0973 44.2392 54.9523 43.9307C58.2737 42.7371 57.5837 30.3364 56.5508 29.1814Z" fill="#149EF2"/>
<path d="M50.3195 37.1675C50.3559 37.6089 50.3795 38.0525 50.3795 38.5003C50.3795 48.9746 40.3831 57.4668 28.0509 57.4668C18.7402 57.4668 10.7667 52.626 7.41309 45.7496C8.22095 55.6068 17.8788 63.3789 29.6817 63.3789C42.0138 63.3789 52.0124 54.8889 52.0124 44.4146C52.0086 41.9014 51.4296 39.4223 50.3195 37.1675Z" fill="#007BEA"/>
<path d="M32.6629 42.8575C33.796 38.0567 30.8227 33.2463 26.0219 32.1132C21.2212 30.9801 16.4108 33.9534 15.2777 38.7542C14.1446 43.555 17.1179 48.3653 21.9187 49.4984C26.7195 50.6315 31.5298 47.6582 32.6629 42.8575Z" fill="white"/>
<path d="M42.7462 47.1206C46.2341 43.6327 46.2341 37.9776 42.7462 34.4897C39.2583 31.0018 33.6032 31.0018 30.1153 34.4897C26.6273 37.9776 26.6273 43.6327 30.1153 47.1206C33.6032 50.6086 39.2583 50.6086 42.7462 47.1206Z" fill="white"/>
<path opacity="0.3" d="M29.7116 74.222C37.2325 74.222 43.3294 72.7916 43.3294 71.027C43.3294 69.2625 37.2325 67.832 29.7116 67.832C22.1907 67.832 16.0938 69.2625 16.0938 71.027C16.0938 72.7916 22.1907 74.222 29.7116 74.222Z" fill="#BAC5D5"/>
<path d="M43.7023 27.1025L34.0959 27.1025C33.155 27.1025 32.3923 27.8653 32.3923 28.8061L32.3923 30.6404C32.3923 31.5813 33.155 32.344 34.0959 32.344L43.7023 32.344C44.6432 32.344 45.4059 31.5813 45.4059 30.6404L45.4059 28.8061C45.4059 27.8653 44.6432 27.1025 43.7023 27.1025Z" fill="#000A23"/>
<path d="M25.2153 27.3456L15.6209 26.8663C14.6812 26.8193 13.8814 27.543 13.8344 28.4827L13.7429 30.3147C13.696 31.2544 14.4197 32.0542 15.3594 32.1012L24.9538 32.5805C25.8935 32.6274 26.6933 31.9037 26.7403 30.964L26.8318 29.132C26.8787 28.1923 26.155 27.3925 25.2153 27.3456Z" fill="#000A23"/>
<path d="M34.5823 11.3568C34.4451 11.3568 34.312 11.31 34.2051 11.224C34.0982 11.138 34.0238 11.0181 33.9943 10.8842C33.9648 10.7502 33.9819 10.6102 34.0429 10.4872C34.1038 10.3643 34.2049 10.2659 34.3294 10.2083L39.1937 7.97114C39.2656 7.93807 39.3433 7.91949 39.4224 7.91646C39.5015 7.91343 39.5804 7.926 39.6546 7.95346C39.7288 7.98092 39.7969 8.02273 39.855 8.0765C39.913 8.13027 39.9599 8.19495 39.993 8.26685C40.026 8.33875 40.0446 8.41646 40.0477 8.49554C40.0507 8.57461 40.0381 8.65352 40.0107 8.72774C39.9832 8.80196 39.9414 8.87004 39.8876 8.92811C39.8339 8.98617 39.7692 9.03307 39.6973 9.06614L34.833 11.3033C34.7541 11.3385 34.6687 11.3568 34.5823 11.3568Z" fill="#149EF2"/>
<path d="M30.9136 7.86398C30.8365 7.86449 30.7601 7.84993 30.6886 7.82112C30.6151 7.79165 30.5481 7.74797 30.4915 7.69257C30.4349 7.63718 30.3898 7.57117 30.3588 7.49832C30.3277 7.42547 30.3113 7.34721 30.3106 7.26802C30.3098 7.18883 30.3247 7.11027 30.3543 7.03683L32.345 2.08897C32.4044 1.94064 32.5203 1.82197 32.6672 1.75908C32.8141 1.69619 32.9799 1.69422 33.1282 1.75361C33.2766 1.813 33.3952 1.92888 33.4581 2.07577C33.521 2.22265 33.523 2.3885 33.4636 2.53683L31.4729 7.48683C31.4277 7.59818 31.3504 7.69353 31.2508 7.76071C31.1511 7.82788 31.0338 7.86384 30.9136 7.86398Z" fill="#149EF2"/>
<path d="M25.2887 6.83984C25.1475 6.83966 25.0108 6.79006 24.9024 6.69964C24.794 6.60922 24.7206 6.48369 24.6951 6.34484L23.838 1.56627C23.8095 1.40884 23.8448 1.24658 23.9361 1.11517C24.0273 0.983757 24.167 0.893968 24.3244 0.865552C24.4818 0.837136 24.6441 0.872421 24.7755 0.963644C24.9069 1.05487 24.9967 1.19456 25.0251 1.35198L25.8823 6.12841C25.9104 6.2858 25.875 6.44791 25.7838 6.57925C25.6926 6.71058 25.5531 6.80043 25.3958 6.82912C25.3605 6.8358 25.3246 6.83938 25.2887 6.83984Z" fill="#149EF2"/>
<path d="M20.8573 9.82678C20.7128 9.82639 20.5731 9.77476 20.463 9.68106L16.1859 6.01249C16.075 5.90536 16.0092 5.7599 16.0021 5.60589C15.995 5.45188 16.047 5.30096 16.1475 5.18404C16.248 5.06711 16.3894 4.99302 16.5427 4.97693C16.696 4.96084 16.8497 5.00397 16.9723 5.09749L21.2387 8.76606C21.3356 8.84556 21.4054 8.95322 21.4384 9.07414C21.4714 9.19507 21.466 9.32326 21.4229 9.44097C21.3799 9.55868 21.3012 9.66008 21.198 9.73112C21.0947 9.80216 20.9719 9.83934 20.8466 9.83749L20.8573 9.82678Z" fill="#149EF2"/>
<path d="M18.7145 15.2141L12.9974 15.1262C12.8377 15.1237 12.6855 15.0578 12.5744 14.9431C12.4633 14.8283 12.4023 14.6741 12.4049 14.5145C12.4074 14.3548 12.4733 14.2026 12.588 14.0915C12.7028 13.9804 12.8569 13.9194 13.0166 13.922L18.7338 14.0077C18.8876 14.019 19.0313 14.0887 19.1354 14.2025C19.2395 14.3164 19.2962 14.4657 19.2937 14.62C19.2912 14.7742 19.2299 14.9217 19.1222 15.0322C19.0145 15.1426 18.8686 15.2077 18.7145 15.2141Z" fill="#149EF2"/>
<path d="M29.4912 41.6694C29.9393 38.909 28.0648 36.308 25.3044 35.8599C22.544 35.4119 19.943 37.2864 19.4949 40.0468C19.0468 42.8072 20.9213 45.4082 23.6817 45.8562C26.4422 46.3043 29.0431 44.4298 29.4912 41.6694Z" fill="#000A23"/>
<path d="M30.3778 55.1268L26.3728 55.1268C26.1381 55.1271 25.9055 55.0811 25.6886 54.9914C25.4716 54.9017 25.2745 54.77 25.1085 54.604C24.9425 54.438 24.8109 54.2409 24.7212 54.0239C24.6314 53.807 24.5854 53.5745 24.5857 53.3397C24.5857 53.1051 24.6319 52.8728 24.7218 52.6561C24.8116 52.4394 24.9433 52.2425 25.1093 52.0767C25.2752 51.911 25.4723 51.7795 25.6891 51.6899C25.9059 51.6004 26.1382 51.5544 26.3728 51.5547L30.3778 51.5547C30.6122 51.5547 30.8444 51.6009 31.0609 51.6906C31.2775 51.7803 31.4743 51.9118 31.64 52.0775C31.8058 52.2433 31.9373 52.44 32.027 52.6566C32.1167 52.8732 32.1628 53.1053 32.1628 53.3397C32.1631 53.5743 32.1172 53.8066 32.0276 54.0234C31.938 54.2402 31.8066 54.4373 31.6408 54.6033C31.475 54.7692 31.2781 54.9009 31.0614 54.9907C30.8447 55.0806 30.6124 55.1268 30.3778 55.1268Z" fill="#000A23"/>
<path d="M39.4266 44.6273C41.3706 42.6833 41.3706 39.5315 39.4266 37.5875C37.4826 35.6436 34.3308 35.6436 32.3868 37.5875C30.4428 39.5315 30.4428 42.6833 32.3868 44.6273C34.3308 46.5713 37.4826 46.5713 39.4266 44.6273Z" fill="#000A23"/>
<path d="M23.2015 48.5032C21.6792 48.5032 20.191 48.0517 18.9252 47.206C17.6595 46.3602 16.6729 45.1581 16.0903 43.7516C15.5077 42.3451 15.3553 40.7975 15.6523 39.3044C15.9493 37.8113 16.6824 36.4398 17.7588 35.3633C18.8353 34.2869 20.2068 33.5538 21.6999 33.2568C23.193 32.9598 24.7406 33.1122 26.1471 33.6948C27.5536 34.2774 28.7557 35.2639 29.6015 36.5297C30.4473 37.7955 30.8987 39.2837 30.8987 40.806C30.8942 42.8461 30.0818 44.8012 28.6392 46.2437C27.1967 47.6863 25.2416 48.4987 23.2015 48.5032ZM23.2015 34.2875C21.9118 34.2875 20.651 34.6699 19.5786 35.3865C18.5062 36.1031 17.6705 37.1217 17.177 38.3133C16.6835 39.5049 16.5545 40.8161 16.8063 42.0811C17.0581 43.346 17.6793 44.5079 18.5915 45.4198C19.5036 46.3316 20.6657 46.9525 21.9307 47.2039C23.1958 47.4552 24.5069 47.3258 25.6984 46.8319C26.8899 46.3381 27.9081 45.5019 28.6244 44.4293C29.3406 43.3567 29.7227 42.0958 29.7223 40.806C29.7206 39.0772 29.033 37.4196 27.8105 36.1971C26.588 34.9746 24.9304 34.287 23.2015 34.2853L23.2015 34.2875Z" fill="#000A23"/>
<path d="M37.4985 48.5826C35.9604 48.5831 34.4567 48.1273 33.1776 47.2731C31.8985 46.4189 30.9014 45.2045 30.3125 43.7836C29.7236 42.3627 29.5693 40.799 29.8691 39.2904C30.1689 37.7818 30.9094 36.396 31.9969 35.3082C33.0843 34.2204 34.47 33.4796 35.9785 33.1794C37.487 32.8791 39.0507 33.033 40.4718 33.6215C41.8929 34.21 43.1075 35.2068 43.9621 36.4856C44.8167 37.7645 45.2728 39.2681 45.2728 40.8062C45.2705 42.8676 44.4508 44.8439 42.9934 46.3017C41.536 47.7595 39.5599 48.5798 37.4985 48.5826ZM37.4985 34.2084C36.193 34.2079 34.9167 34.5947 33.831 35.3198C32.7453 36.0448 31.899 37.0756 31.3992 38.2817C30.8994 39.4877 30.7685 40.815 31.0231 42.0954C31.2777 43.3759 31.9063 44.5521 32.8295 45.4753C33.7526 46.3984 34.9289 47.027 36.2093 47.2816C37.4898 47.5362 38.817 47.4054 40.0231 46.9055C41.2292 46.4057 42.2599 45.5595 42.985 44.4738C43.71 43.3881 44.0968 42.1118 44.0964 40.8062C44.0941 39.057 43.3983 37.3802 42.1614 36.1433C40.9246 34.9065 39.2477 34.2106 37.4985 34.2084Z" fill="#000A23"/>
<path d="M16.0937 40.3797C15.9418 40.3792 15.796 40.3201 15.6866 40.2147L10.2502 34.9797C10.1939 34.9262 10.1487 34.8622 10.1171 34.7912C10.0856 34.7203 10.0683 34.6438 10.0664 34.5662C10.0644 34.4886 10.0777 34.4114 10.1055 34.339C10.1334 34.2665 10.1753 34.2002 10.2287 34.144C10.2822 34.0877 10.3462 34.0425 10.4172 34.0109C10.4881 33.9794 10.5645 33.9621 10.6421 33.9602C10.7197 33.9582 10.797 33.9715 10.8694 33.9993C10.9419 34.0272 11.0082 34.0691 11.0644 34.1225L16.503 39.3575C16.5879 39.4388 16.6465 39.5436 16.6712 39.6585C16.6959 39.7734 16.6855 39.8931 16.6414 40.0021C16.5974 40.111 16.5216 40.2042 16.4239 40.2696C16.3263 40.335 16.2113 40.3696 16.0937 40.3689L16.0937 40.3797Z" fill="#000A23"/>
<path d="M44.1116 38.5539C43.9945 38.5535 43.8802 38.5183 43.7833 38.4527C43.6863 38.3871 43.6111 38.2941 43.5672 38.1856C43.5233 38.0771 43.5127 37.958 43.5368 37.8435C43.5608 37.7289 43.6184 37.6241 43.7023 37.5425L47.8573 33.4882C47.969 33.3793 48.1193 33.3193 48.2752 33.3213C48.4311 33.3233 48.5799 33.3872 48.6887 33.4989C48.7976 33.6106 48.8576 33.7609 48.8556 33.9168C48.8535 34.0727 48.7897 34.2215 48.678 34.3303L44.5166 38.3867C44.4082 38.4926 44.2631 38.5525 44.1116 38.5539Z" fill="#000A23"/>
</svg>
